<svg xmlns="http://www.w3.org/2000/svg" xmlns:xlink="http://www.w3.org/1999/xlink" width="500" zoomAndPan="magnify" viewBox="0 0 375 374.999991" height="500" preserveAspectRatio="xMidYMid meet" version="1.0"><defs><g/><clipPath id="fd3f80fd74"><path d="M 238 142 L 304.300781 142 L 304.300781 215 L 238 215 Z M 238 142 " clip-rule="nonzero"/></clipPath><clipPath id="f694512261"><path d="M 31 143 L 97 143 L 97 214 L 31 214 Z M 31 143 " clip-rule="nonzero"/></clipPath><clipPath id="411fc6a696"><path d="M 98.394531 213.996094 L 32.40625 215.355469 L 30.925781 143.371094 L 96.910156 142.011719 Z M 98.394531 213.996094 " clip-rule="nonzero"/></clipPath><clipPath id="f1488c2756"><path d="M 98.394531 213.996094 L 32.40625 215.355469 L 30.925781 143.371094 L 96.910156 142.011719 Z M 98.394531 213.996094 " clip-rule="nonzero"/></clipPath><clipPath id="247d4d913c"><path d="M 98.394531 213.996094 L 32.40625 215.355469 L 30.925781 143.371094 L 96.910156 142.011719 Z M 98.394531 213.996094 " clip-rule="nonzero"/></clipPath><clipPath id="9bb0f1ff4c"><path d="M 198 105 L 248 105 L 248 230 L 198 230 Z M 198 105 " clip-rule="nonzero"/></clipPath><clipPath id="be4c7626a1"><path d="M 157.800781 145.683594 L 244.527344 102.796875 L 287.414062 189.519531 L 200.6875 232.40625 Z M 157.800781 145.683594 " clip-rule="nonzero"/></clipPath><clipPath id="883c2d5d17"><path d="M 157.800781 145.683594 L 244.527344 102.796875 L 287.414062 189.519531 L 200.6875 232.40625 Z M 157.800781 145.683594 " clip-rule="nonzero"/></clipPath></defs><rect x="-37.5" width="450" fill="#ffffff" y="-37.499999" height="449.999989" fill-opacity="1"/><rect x="-37.5" width="450" fill="#ffffff" y="-37.499999" height="449.999989" fill-opacity="1"/><rect x="-37.5" width="450" fill="#ffffff" y="-37.499999" height="449.999989" fill-opacity="1"/><path fill="#0fb4d1" d="M 195.136719 345.328125 C 245.796875 340.257812 386.78125 328.449219 345.546875 197.820312 C 304.316406 67.1875 240.261719 7.613281 141.523438 64.652344 C 42.777344 121.695312 21.574219 184.9375 62.808594 255.351562 C 104.039062 325.769531 122.402344 352.613281 195.136719 345.328125 " fill-opacity="1" fill-rule="nonzero"/><path fill="#14056d" d="M 169.660156 331.125 C 219.175781 326.152344 356.972656 314.578125 316.671875 186.5 C 276.371094 58.425781 213.765625 0.0195312 117.253906 55.941406 C 20.742188 111.867188 0.015625 173.871094 40.316406 242.910156 C 80.617188 311.949219 98.566406 338.265625 169.660156 331.125 " fill-opacity="1" fill-rule="nonzero"/><g clip-path="url(#fd3f80fd74)"><path fill="#42b6e8" d="M 304.277344 178.492188 C 304.300781 177 303.960938 175.507812 303.234375 174.167969 C 302.46875 172.675781 301.300781 171.394531 299.769531 170.542969 C 291.832031 166.171875 283.917969 161.824219 275.984375 157.457031 C 267.945312 153.023438 259.882812 148.589844 251.839844 144.15625 C 247.457031 141.75 241.839844 143.050781 239.265625 147.460938 C 236.800781 151.703125 238.183594 157.648438 242.566406 160.058594 C 250.5 164.425781 258.414062 168.796875 266.347656 173.144531 C 269.582031 174.933594 272.816406 176.703125 276.046875 178.492188 C 272.941406 180.199219 269.816406 181.925781 266.710938 183.628906 C 258.667969 188.0625 250.605469 192.496094 242.566406 196.929688 C 238.183594 199.335938 236.800781 205.285156 239.265625 209.503906 C 241.839844 213.914062 247.457031 215.238281 251.839844 212.808594 C 259.773438 208.457031 267.6875 204.089844 275.625 199.71875 C 283.664062 195.289062 291.726562 190.875 299.769531 186.441406 C 301.300781 185.589844 302.46875 184.3125 303.234375 182.820312 C 303.960938 181.476562 304.300781 179.984375 304.277344 178.492188 Z M 304.277344 178.492188 " fill-opacity="1" fill-rule="nonzero"/></g><g fill="#ffffff" fill-opacity="1"><g transform="translate(95.159643, 187.381701)"><g><path d="M 8.15625 -19.90625 L 2.226562 -19.90625 L 2.226562 0 L 8.15625 0 C 21.410156 0 21.410156 -19.90625 8.15625 -19.90625 Z M 8.15625 -15.925781 C 15.898438 -15.925781 15.898438 -3.980469 8.15625 -3.980469 L 6.207031 -3.980469 L 6.207031 -15.925781 Z M 8.15625 -15.925781 "/></g></g></g><g fill="#ffffff" fill-opacity="1"><g transform="translate(114.753392, 187.381701)"><g><path d="M 0.445312 0 L 4.957031 0 L 5.734375 -2.144531 L 12.332031 -2.144531 L 13.140625 0 L 17.621094 0 L 9.242188 -20.628906 L 8.824219 -20.628906 Z M 7.183594 -5.875 L 9.046875 -11.050781 L 10.859375 -5.875 Z M 7.183594 -5.875 "/></g></g></g><g fill="#ffffff" fill-opacity="1"><g transform="translate(132.927707, 187.381701)"><g><path d="M 6.207031 -10.828125 L 16.285156 0.417969 L 17.34375 0.417969 L 17.34375 -19.878906 L 13.335938 -19.878906 L 13.335938 -8.628906 L 3.285156 -20.324219 L 2.226562 -20.324219 L 2.226562 0 L 6.207031 0 Z M 6.207031 -10.828125 "/></g></g></g><g fill="#ff1616" fill-opacity="1"><g transform="translate(152.511202, 187.381701)"><g><path d="M 3.0625 -4.289062 C 0.0546875 -4.289062 0.0546875 0.195312 3.0625 0.195312 C 6.042969 0.195312 6.125 -4.289062 3.0625 -4.289062 Z M 3.0625 -4.289062 "/></g></g></g><g fill="#ffffff" fill-opacity="1"><g transform="translate(159.296358, 187.381701)"><g><path d="M 8.15625 -19.90625 L 2.226562 -19.90625 L 2.226562 0 L 8.15625 0 C 21.410156 0 21.410156 -19.90625 8.15625 -19.90625 Z M 8.15625 -15.925781 C 15.898438 -15.925781 15.898438 -3.980469 8.15625 -3.980469 L 6.207031 -3.980469 L 6.207031 -15.925781 Z M 8.15625 -15.925781 "/></g></g></g><g fill="#ffffff" fill-opacity="1"><g transform="translate(178.890106, 187.381701)"><g><path d="M 12.527344 0 L 12.527344 -3.980469 L 6.207031 -3.980469 L 6.207031 -7.960938 L 11.441406 -7.960938 L 11.441406 -11.945312 L 6.207031 -11.945312 L 6.207031 -15.925781 L 12.195312 -15.925781 L 12.195312 -19.90625 L 2.226562 -19.90625 L 2.226562 0 Z M 12.527344 0 "/></g></g></g><g fill="#ffffff" fill-opacity="1"><g transform="translate(192.917449, 187.381701)"><g><path d="M 8.40625 0.417969 L 9.296875 0.417969 L 17.539062 -19.90625 L 12.945312 -19.90625 L 10.273438 -13.140625 L 8.851562 -9.160156 L 7.40625 -13.28125 L 4.761719 -19.90625 L 0.167969 -19.90625 Z M 8.40625 0.417969 "/></g></g></g><g clip-path="url(#f694512261)"><g clip-path="url(#411fc6a696)"><g clip-path="url(#f1488c2756)"><g clip-path="url(#247d4d913c)"><path fill="#42b6e8" d="M 31.6875 179.363281 C 31.695312 180.824219 32.058594 182.277344 32.792969 183.578125 C 33.570312 185.023438 34.742188 186.253906 36.257812 187.058594 C 44.101562 191.175781 51.925781 195.273438 59.769531 199.394531 C 67.71875 203.574219 75.691406 207.753906 83.640625 211.929688 C 87.972656 214.203125 93.4375 212.816406 95.867188 208.441406 C 98.191406 204.238281 96.722656 198.445312 92.386719 196.175781 C 84.542969 192.054688 76.71875 187.9375 68.875 183.839844 C 65.675781 182.148438 62.480469 180.484375 59.285156 178.792969 C 62.285156 177.0625 65.308594 175.308594 68.308594 173.578125 C 76.082031 169.074219 83.871094 164.570312 91.644531 160.066406 C 95.878906 157.617188 97.113281 151.769531 94.613281 147.683594 C 92.007812 143.417969 86.492188 142.234375 82.257812 144.703125 C 74.585938 149.121094 66.941406 153.558594 59.269531 157.996094 C 51.5 162.5 43.707031 166.984375 35.933594 171.488281 C 34.453125 172.351562 33.335938 173.628906 32.617188 175.105469 C 31.9375 176.433594 31.636719 177.902344 31.6875 179.363281 Z M 31.6875 179.363281 " fill-opacity="1" fill-rule="nonzero"/></g></g></g></g><g clip-path="url(#9bb0f1ff4c)"><g clip-path="url(#be4c7626a1)"><g clip-path="url(#883c2d5d17)"><path fill="#0fb4d1" d="M 201.632812 229.609375 C 201.304688 229.496094 200.988281 229.355469 200.683594 229.179688 C 200.382812 229.003906 200.101562 228.804688 199.835938 228.574219 C 199.574219 228.34375 199.335938 228.089844 199.125 227.8125 C 198.910156 227.539062 198.726562 227.242188 198.574219 226.929688 C 198.417969 226.617188 198.296875 226.292969 198.207031 225.957031 C 198.113281 225.617188 198.058594 225.277344 198.035156 224.925781 C 198.011719 224.578125 198.023438 224.230469 198.066406 223.886719 C 198.113281 223.539062 198.191406 223.203125 198.304688 222.871094 L 236.84375 108.925781 C 236.949219 108.589844 237.089844 108.269531 237.261719 107.960938 C 237.433594 107.652344 237.632812 107.363281 237.859375 107.09375 C 238.089844 106.824219 238.34375 106.582031 238.621094 106.363281 C 238.898438 106.144531 239.195312 105.957031 239.507812 105.796875 C 239.824219 105.636719 240.152344 105.511719 240.492188 105.417969 C 240.832031 105.324219 241.179688 105.265625 241.53125 105.238281 C 241.882812 105.214844 242.234375 105.222656 242.582031 105.269531 C 242.933594 105.3125 243.277344 105.394531 243.609375 105.507812 C 243.945312 105.617188 244.265625 105.765625 244.570312 105.941406 C 244.875 106.117188 245.160156 106.324219 245.425781 106.554688 C 245.6875 106.789062 245.929688 107.046875 246.140625 107.328125 C 246.355469 107.609375 246.539062 107.910156 246.691406 108.226562 C 246.847656 108.542969 246.964844 108.875 247.054688 109.214844 C 247.144531 109.558594 247.195312 109.90625 247.214844 110.257812 C 247.234375 110.609375 247.21875 110.960938 247.167969 111.308594 C 247.117188 111.660156 247.03125 112 246.910156 112.332031 L 208.371094 226.277344 C 208.261719 226.609375 208.117188 226.925781 207.945312 227.226562 C 207.769531 227.527344 207.566406 227.8125 207.335938 228.074219 C 207.109375 228.335938 206.855469 228.574219 206.578125 228.785156 C 206.300781 229 206.007812 229.183594 205.695312 229.339844 C 205.378906 229.492188 205.054688 229.617188 204.71875 229.707031 C 204.382812 229.796875 204.039062 229.855469 203.691406 229.878906 C 203.34375 229.898438 202.996094 229.890625 202.648438 229.84375 C 202.304688 229.800781 201.964844 229.71875 201.632812 229.609375 Z M 201.632812 229.609375 " fill-opacity="1" fill-rule="nonzero"/></g></g></g></svg>